<svg xmlns="http://www.w3.org/2000/svg" width="94" height="20" viewBox="0 0 94 20" fill="none">
<path d="M15.9304 17.6564H1.87416C0.838686 17.6564 0 16.8203 0 15.7881C0 14.7559 0.838686 13.9198 1.87416 13.9198H15.9304C16.9658 13.9198 17.8045 14.7559 17.8045 15.7881C17.8045 16.8203 16.9658 17.6564 15.9304 17.6564Z" fill="#6DFFD5">
</path>
<path d="M15.9304 5.97961H1.87416C0.838686 5.97961 0 5.14356 0 4.11133C0 3.0791 0.838686 2.24304 1.87416 2.24304H15.9304C16.9658 2.24304 17.8045 3.0791 17.8045 4.11133C17.8045 5.14356 16.9658 5.97961 15.9304 5.97961Z" fill="#6DFFD5">
</path>
<path d="M35.4776 2.90526C33.5097 1.18644 30.6797 0.327026 26.983 0.327026H22.9629V19.5377H26.983C30.6797 19.5377 33.5144 18.6783 35.4776 16.9594C37.4267 15.2546 38.406 12.966 38.4247 9.93469C38.406 6.90339 37.4267 4.61007 35.4776 2.90526ZM32.6992 14.2224C31.5325 15.3387 29.9629 15.8992 27.9856 15.8992H26.9408V3.96551H27.9856C29.9582 3.96551 31.5325 4.526 32.6992 5.6423C33.8471 6.74459 34.4281 8.17383 34.4468 9.93002C34.4281 11.6909 33.8471 13.1248 32.6992 14.2224Z" fill="white">
</path>
<path d="M57.2744 0.32695V19.7057L60.8166 19.3741V0L57.2744 0.32695Z" fill="white">
</path>
<path d="M63.3975 0.32695V19.7057L66.9396 19.3741V0L63.3975 0.32695Z" fill="white">
</path>
<path d="M47.5842 4.85754C43.2877 4.85754 39.8018 8.24381 39.8018 12.4241C39.8018 16.6044 43.2877 19.9907 47.5842 19.9907C51.8807 19.9907 55.3667 16.6044 55.3667 12.4241C55.3667 8.24381 51.8807 4.85754 47.5842 4.85754ZM47.5842 16.7492C45.2415 16.7492 43.3439 14.8155 43.3439 12.4241C43.3439 10.0374 45.2415 8.09902 47.5842 8.09902C49.9269 8.09902 51.8245 10.0327 51.8245 12.4241C51.8245 14.8108 49.9269 16.7492 47.5842 16.7492Z" fill="white">
</path>
<path d="M76.381 16.7492C75.2612 16.7492 74.2538 16.2401 73.5323 15.4227L80.2277 11.2658L83.2779 9.37413C82.1113 6.71649 79.464 4.85754 76.3857 4.85754C72.2251 4.85754 68.8516 8.24381 68.8516 12.4241C68.8516 16.6044 72.2251 19.9907 76.3857 19.9907C78.7143 19.9907 80.8321 19.2667 82.4486 18.085L80.9493 15.0537C79.8904 16.0813 78.2411 16.7492 76.381 16.7492ZM76.381 8.00561C77.3415 8.00561 78.2224 8.38393 78.9064 9.00514L72.4359 12.9052C72.4172 12.7324 72.4031 12.5549 72.4031 12.3774C72.4031 9.96264 74.1836 8.00561 76.381 8.00561Z" fill="white">
</path>
<path d="M92.0019 16.7491C91.1211 16.7491 90.4745 16.5717 90.0575 16.2167C89.6405 15.8617 89.4343 15.2545 89.4343 14.3951V8.55671H92.6719V5.31523H89.4343V1.25171L85.8922 2.96119V5.31523H84.5475L83.6572 8.55671H85.8968V15.1284C85.8968 16.6184 86.3326 17.8047 87.1994 18.6828C88.0709 19.5609 89.3781 20 91.1258 20C91.7583 20 92.3065 19.9439 92.4986 19.9159L93.4591 16.6464C93.2576 16.6744 92.6766 16.7491 92.0019 16.7491Z" fill="white">
</path>
</svg> 