<svg width="126" height="35" viewBox="0 0 126 35" fill="none" xmlns="http://www.w3.org/2000/svg">
<path d="M18.3736 18.2258H6.30835C5.76044 18.2258 4.69962 17.5764 4.77851 16.0094C4.85741 14.4424 5.46888 11.7534 5.76475 10.6048C5.92912 9.77053 6.8025 7.88435 9.01933 7.88435C11.2362 7.88435 20.0603 7.8841 24.3756 7.8841C24.0844 8.93212 24.0716 9.90943 23.5157 10.6048C22.6795 11.6509 21.7439 11.4375 19.6958 11.4498C15.6877 11.474 13.1161 11.4498 12.3312 11.4498C10.8075 11.4498 9.98479 11.4072 9.66549 13.6758L9.5319 14.6433H20.3959C21.3978 14.6433 23.3372 14.3892 22.8453 17.5323L22.2187 21.4698C21.8617 23.7291 20.9578 24.9763 17.802 24.9763C14.6462 24.9763 7.90523 24.9312 6.71331 25.0861C5.52139 25.241 2.68311 25.9595 1.51172 27C1.69209 26.1321 2.56114 23.7832 3.46485 22.4135C4.0977 21.4544 4.7556 21.3966 5.91395 21.4151H15.3986C17.9942 21.4151 17.9842 20.6677 18.1687 19.521L18.3736 18.2258Z" fill="url(#paint0_linear_1459_45512)"/>
<path d="M27.0917 9.85805L24.6893 24.9763H29.0532L29.7223 20.7604L33.2621 18.0813L42.3456 11.2102H36.3244L30.5407 15.5919L31.7628 7.88483L28.3591 8.32545C27.4547 8.51258 27.2519 8.67269 27.0917 9.85805Z" fill="url(#paint1_linear_1459_45512)"/>
<path d="M35.6155 24.9757H42.0653L34.4576 18.977L31.1673 21.4672L35.6155 24.9757Z" fill="url(#paint2_linear_1459_45512)"/>
<path fill-rule="evenodd" clip-rule="evenodd" d="M41.9193 14.7827L40.8547 21.402C40.6891 22.5062 41.5614 24.8347 44.6463 24.9759H53.2053C54.4269 24.9759 56.2485 24.1397 56.7754 21.4107L57.809 14.7895C57.9158 13.7122 56.7779 11.3791 54.0212 11.2115H46.1244C44.1809 11.2115 42.274 12.7604 41.9193 14.7827ZM45.3407 20.477L46.062 15.9941C46.1967 15.1779 46.4357 14.7816 47.4956 14.7816H52.1358C52.9443 14.7816 53.4144 15.119 53.2579 16.0171L52.5241 20.6539C52.385 21.3615 51.6356 21.4083 51.2794 21.4083H46.4657C45.8875 21.4083 45.196 21.2953 45.3407 20.477Z" fill="url(#paint3_linear_1459_45512)"/>
<path d="M61.4084 11.2141L59.2263 24.976H63.5909L64.4165 19.7351C64.8309 17.2696 67.2381 14.7883 72.9601 14.7883L73.528 11.2133C67.6419 11.3828 66.9696 12.4013 65.4319 13.322L65.7634 11.2141H61.4084Z" fill="url(#paint4_linear_1459_45512)"/>
<path d="M74.3764 24.9773H78.7395L80.9117 11.2138H76.559L74.3764 24.9773Z" fill="url(#paint5_linear_1459_45512)"/>
<path d="M77.0424 8.78588C76.7809 9.58519 76.78 9.81364 76.78 9.81364H81.1408L81.4953 7.57112C81.4953 7.57112 81.5705 7.17388 81.3993 7.06418C81.1275 6.88994 80.6242 7.12568 80.6242 7.12568L77.4636 8.27807C77.4636 8.27807 77.17 8.3956 77.0424 8.78588Z" fill="url(#paint6_linear_1459_45512)"/>
<path d="M97.8262 15.3288L79.5117 34L110.803 17.7558C115.732 14.8558 112.462 13.0623 110.366 12.0713C108.754 11.1342 109.819 9.98763 110.688 9.53582C110.688 9.53582 111.305 9.20461 111.712 9.01634C112.599 8.60625 113.137 8.46897 114.061 8.14846C116.328 7.36211 119.961 6.42217 119.961 6.42217L124.512 1L113.165 4.27871C111.68 4.73791 108.985 5.69754 106.67 7.15126C104.354 8.60499 102.29 10.5143 101.49 11.9364C102.811 12.3923 105.755 13.696 106.911 14.724C108.378 16.0009 107.763 16.905 106.665 17.4922L92.7852 24.2513L101.298 15.6431L97.8262 15.3288Z" fill="url(#paint7_linear_1459_45512)"/>
<path d="M83.1628 7.30315L90.9643 8.73818L96.7429 14.2914L93.7463 17.3454L83.1628 7.30315Z" fill="url(#paint8_linear_1459_45512)"/>
<path d="M98.2344 12.814L87.9388 3.02824L94.0658 4.15785L100.656 10.3749L98.2344 12.814Z" fill="url(#paint9_linear_1459_45512)"/>
<path d="M101.359 24.5584L105.356 22.4889L115.139 31.8193L107.408 30.3983L101.359 24.5584Z" fill="url(#paint10_linear_1459_45512)"/>
<path d="M113.487 27.3673L119.682 28.5068L110.488 19.7927L107.289 21.4596L113.487 27.3673Z" fill="url(#paint11_linear_1459_45512)"/>
<defs>
<linearGradient id="paint0_linear_1459_45512" x1="19.2982" y1="-4.12046" x2="21.1151" y2="38.8063" gradientUnits="userSpaceOnUse">
<stop stop-color="#BB79FF"/>
<stop offset="1" stop-color="#6B91FF"/>
</linearGradient>
<linearGradient id="paint1_linear_1459_45512" x1="19.2982" y1="-4.12046" x2="21.1151" y2="38.8063" gradientUnits="userSpaceOnUse">
<stop stop-color="#BB79FF"/>
<stop offset="1" stop-color="#6B91FF"/>
</linearGradient>
<linearGradient id="paint2_linear_1459_45512" x1="19.2982" y1="-4.12046" x2="21.1151" y2="38.8063" gradientUnits="userSpaceOnUse">
<stop stop-color="#BB79FF"/>
<stop offset="1" stop-color="#6B91FF"/>
</linearGradient>
<linearGradient id="paint3_linear_1459_45512" x1="19.2982" y1="-4.12046" x2="21.1151" y2="38.8063" gradientUnits="userSpaceOnUse">
<stop stop-color="#BB79FF"/>
<stop offset="1" stop-color="#6B91FF"/>
</linearGradient>
<linearGradient id="paint4_linear_1459_45512" x1="19.2982" y1="-4.12046" x2="21.1151" y2="38.8063" gradientUnits="userSpaceOnUse">
<stop stop-color="#BB79FF"/>
<stop offset="1" stop-color="#6B91FF"/>
</linearGradient>
<linearGradient id="paint5_linear_1459_45512" x1="19.2982" y1="-4.12046" x2="21.1151" y2="38.8063" gradientUnits="userSpaceOnUse">
<stop stop-color="#BB79FF"/>
<stop offset="1" stop-color="#6B91FF"/>
</linearGradient>
<linearGradient id="paint6_linear_1459_45512" x1="19.2982" y1="-4.12046" x2="21.1151" y2="38.8063" gradientUnits="userSpaceOnUse">
<stop stop-color="#BB79FF"/>
<stop offset="1" stop-color="#6B91FF"/>
</linearGradient>
<linearGradient id="paint7_linear_1459_45512" x1="32.3293" y1="1.691" x2="33.9601" y2="39.0395" gradientUnits="userSpaceOnUse">
<stop stop-color="#BB79FF"/>
<stop offset="1" stop-color="#6B91FF"/>
</linearGradient>
<linearGradient id="paint8_linear_1459_45512" x1="32.3293" y1="1.691" x2="33.9601" y2="39.0395" gradientUnits="userSpaceOnUse">
<stop stop-color="#BB79FF"/>
<stop offset="1" stop-color="#6B91FF"/>
</linearGradient>
<linearGradient id="paint9_linear_1459_45512" x1="32.3293" y1="1.691" x2="33.9601" y2="39.0395" gradientUnits="userSpaceOnUse">
<stop stop-color="#BB79FF"/>
<stop offset="1" stop-color="#6B91FF"/>
</linearGradient>
<linearGradient id="paint10_linear_1459_45512" x1="32.3293" y1="1.691" x2="33.9601" y2="39.0395" gradientUnits="userSpaceOnUse">
<stop stop-color="#BB79FF"/>
<stop offset="1" stop-color="#6B91FF"/>
</linearGradient>
<linearGradient id="paint11_linear_1459_45512" x1="32.3293" y1="1.691" x2="33.9601" y2="39.0395" gradientUnits="userSpaceOnUse">
<stop stop-color="#BB79FF"/>
<stop offset="1" stop-color="#6B91FF"/>
</linearGradient>
</defs>
</svg>
